<?xml version="1.0" encoding="UTF-8"?>
<!DOCTYPE svg PUBLIC "-//W3C//DTD SVG 1.1//EN" "http://www.w3.org/Graphics/SVG/1.1/DTD/svg11.dtd">
<!-- Creator: CorelDRAW -->
<svg xmlns="http://www.w3.org/2000/svg" xml:space="preserve" width="36px" height="36px" version="1.1" style="shape-rendering:geometricPrecision; text-rendering:geometricPrecision; image-rendering:optimizeQuality; fill-rule:evenodd; clip-rule:evenodd"
viewBox="0 0 36 36"
 xmlns:xlink="http://www.w3.org/1999/xlink"
 xmlns:xodm="http://www.corel.com/coreldraw/odm/2003">
 <defs>
  <style type="text/css">
   <![CDATA[
    .fil0 {fill:#292B41}
    .fil1 {fill:#DFDAD8;fill-rule:nonzero}
   ]]>
  </style>
 </defs>
 <g id="Layer_x0020_1">
  <metadata id="CorelCorpID_0Corel-Layer"/>
  <g id="_1976401447968">
   <rect class="fil0" x="-0.34" y="1.33" width="35.01" height="35.01" rx="7" ry="7"/>
   <path id="envelope-solid.svg" class="fil1" d="M8.71 11.03c-1.08,0 -1.95,0.87 -1.95,1.95 0,0.61 0.29,1.19 0.78,1.56l8.85 6.64c0.46,0.34 1.09,0.34 1.56,0l8.84 -6.64c0.5,-0.37 0.78,-0.95 0.78,-1.56 0,-1.08 -0.87,-1.95 -1.95,-1.95l-16.91 0zm-1.95 4.55l0 8.46c0,1.43 1.17,2.6 2.6,2.6l15.61 0c1.44,0 2.6,-1.17 2.6,-2.6l0 -8.46 -8.84 6.64c-0.93,0.69 -2.2,0.69 -3.13,0l-8.84 -6.64z"/>
  </g>
 </g>
</svg>
