<?xml version="1.0" encoding="UTF-8"?>
<!DOCTYPE svg PUBLIC "-//W3C//DTD SVG 1.1//EN" "http://www.w3.org/Graphics/SVG/1.1/DTD/svg11.dtd">
<!-- Creator: CorelDRAW -->
<svg xmlns="http://www.w3.org/2000/svg" xml:space="preserve" width="3508px" height="2480px" version="1.1" style="shape-rendering:geometricPrecision; text-rendering:geometricPrecision; image-rendering:optimizeQuality; fill-rule:evenodd; clip-rule:evenodd"
viewBox="0 0 3508 2480.4"
 xmlns:xlink="http://www.w3.org/1999/xlink"
 xmlns:xodm="http://www.corel.com/coreldraw/odm/2003">
 <defs>
  <style type="text/css">
   <![CDATA[
    .fil0 {fill:#292B41}
    .fil1 {fill:#DFDAD8;fill-rule:nonzero}
   ]]>
  </style>
 </defs>
 <g id="Layer_x0020_1">
  <metadata id="CorelCorpID_0Corel-Layer"/>
  <rect class="fil0" x="1684.92" y="1019.16" width="35.32" height="35.32" rx="7.06" ry="7.06"/>
  <path id="envelope-solid.svg" class="fil1" d="M1694.05 1028.95c-1.09,0 -1.97,0.88 -1.97,1.96 0,0.63 0.29,1.21 0.79,1.58l8.92 6.69c0.47,0.35 1.11,0.35 1.58,0l8.92 -6.69c0.5,-0.37 0.79,-0.95 0.79,-1.58 0,-1.08 -0.88,-1.96 -1.97,-1.96l-17.06 0zm-1.97 4.59l0 8.53c0,1.45 1.18,2.63 2.62,2.63l15.76 0c1.44,0 2.62,-1.18 2.62,-2.63l0 -8.53 -8.92 6.69c-0.94,0.71 -2.22,0.71 -3.16,0l-8.92 -6.69z"/>
 </g>
</svg>
