<?xml version="1.0" encoding="UTF-8"?>
<!DOCTYPE svg PUBLIC "-//W3C//DTD SVG 1.1//EN" "http://www.w3.org/Graphics/SVG/1.1/DTD/svg11.dtd">
<!-- Creator: CorelDRAW -->
<svg xmlns="http://www.w3.org/2000/svg" xml:space="preserve" width="36px" height="36px" version="1.1" style="shape-rendering:geometricPrecision; text-rendering:geometricPrecision; image-rendering:optimizeQuality; fill-rule:evenodd; clip-rule:evenodd"
viewBox="0 0 36 36"
 xmlns:xlink="http://www.w3.org/1999/xlink"
 xmlns:xodm="http://www.corel.com/coreldraw/odm/2003">
 <defs>
  <style type="text/css">
   <![CDATA[
    .fil0 {fill:#292B41}
    .fil1 {fill:#DFDAD8;fill-rule:nonzero}
   ]]>
  </style>
 </defs>
 <g id="Layer_x0020_1">
  <metadata id="CorelCorpID_0Corel-Layer"/>
  <g id="_1976392483664">
   <rect class="fil0" x="-0.34" y="1.33" width="35.01" height="35.01" rx="7" ry="7"/>
   <path id="globe-solid.svg" class="fil1" d="M21.07 18.83c0,0.91 -0.05,1.78 -0.13,2.6l-7.54 0c-0.09,-0.82 -0.14,-1.69 -0.14,-2.6 0,-0.9 0.05,-1.77 0.14,-2.6l7.54 0c0.09,0.83 0.13,1.7 0.13,2.6zm1.17 -2.6l5.01 0c0.21,0.83 0.32,1.71 0.32,2.6 0,0.9 -0.11,1.77 -0.32,2.6l-5.01 0c0.09,-0.83 0.13,-1.7 0.13,-2.6 0,-0.89 -0.04,-1.76 -0.13,-2.6zm4.58 -1.3l-4.75 0c-0.4,-2.6 -1.21,-4.77 -2.24,-6.16 3.18,0.84 5.77,3.15 6.98,6.16l0.01 0zm-6.06 0l-7.18 0c0.24,-1.48 0.63,-2.79 1.09,-3.85 0.43,-0.96 0.91,-1.65 1.37,-2.09 0.45,-0.43 0.83,-0.56 1.13,-0.56 0.29,0 0.67,0.13 1.13,0.56 0.46,0.44 0.93,1.13 1.36,2.09 0.47,1.06 0.85,2.37 1.1,3.85zm-8.5 0l-4.75 0c1.22,-3.01 3.81,-5.32 7,-6.16 -1.04,1.39 -1.84,3.56 -2.25,6.16zm-5.17 1.3l5 0c-0.08,0.84 -0.13,1.71 -0.13,2.6 0,0.9 0.05,1.77 0.13,2.6l-5 0c-0.22,-0.83 -0.33,-1.7 -0.33,-2.6 0,-0.89 0.11,-1.77 0.33,-2.6zm7.58 10.35c-0.47,-1.05 -0.85,-2.36 -1.09,-3.84l7.18 0c-0.25,1.48 -0.63,2.79 -1.1,3.84 -0.43,0.96 -0.9,1.66 -1.36,2.1 -0.46,0.43 -0.84,0.56 -1.13,0.56 -0.3,0 -0.68,-0.13 -1.13,-0.56 -0.46,-0.44 -0.94,-1.13 -1.37,-2.09l0 -0.01zm-2.41 -3.84c0.41,2.59 1.21,4.77 2.25,6.16 -3.19,-0.84 -5.78,-3.15 -7,-6.16l4.75 0zm14.56 0c-1.22,3.01 -3.81,5.32 -6.99,6.16 1.04,-1.39 1.84,-3.57 2.25,-6.16l4.74 0z"/>
  </g>
 </g>
</svg>
