<?xml version="1.0" encoding="UTF-8"?>
<!DOCTYPE svg PUBLIC "-//W3C//DTD SVG 1.1//EN" "http://www.w3.org/Graphics/SVG/1.1/DTD/svg11.dtd">
<!-- Creator: CorelDRAW -->
<svg xmlns="http://www.w3.org/2000/svg" xml:space="preserve" width="3508px" height="2480px" version="1.1" style="shape-rendering:geometricPrecision; text-rendering:geometricPrecision; image-rendering:optimizeQuality; fill-rule:evenodd; clip-rule:evenodd"
viewBox="0 0 3508 2480.4"
 xmlns:xlink="http://www.w3.org/1999/xlink"
 xmlns:xodm="http://www.corel.com/coreldraw/odm/2003">
 <defs>
  <style type="text/css">
   <![CDATA[
    .fil0 {fill:#292B41}
    .fil1 {fill:#DFDAD8;fill-rule:nonzero}
   ]]>
  </style>
 </defs>
 <g id="Layer_x0020_1">
  <metadata id="CorelCorpID_0Corel-Layer"/>
  <rect class="fil0" x="1744.92" y="1019.16" width="35.32" height="35.32" rx="7.06" ry="7.06"/>
  <path id="globe-solid.svg" class="fil1" d="M1766.52 1036.82c0,0.91 -0.05,1.79 -0.13,2.63l-7.61 0c-0.09,-0.84 -0.13,-1.72 -0.13,-2.63 0,-0.91 0.05,-1.79 0.13,-2.62l7.61 0c0.09,0.83 0.13,1.71 0.13,2.62zm1.18 -2.62l5.05 0c0.22,0.84 0.33,1.72 0.33,2.62 0,0.91 -0.11,1.79 -0.33,2.63l-5.05 0c0.09,-0.85 0.13,-1.73 0.13,-2.63 0,-0.9 -0.04,-1.78 -0.13,-2.62zm4.62 -1.32l-4.79 0c-0.41,-2.62 -1.22,-4.81 -2.26,-6.21 3.21,0.85 5.82,3.17 7.05,6.21l0 0zm-6.12 0l-7.24 0c0.25,-1.49 0.64,-2.81 1.11,-3.88 0.43,-0.97 0.91,-1.67 1.37,-2.11 0.46,-0.44 0.84,-0.57 1.14,-0.57 0.3,0 0.68,0.13 1.14,0.57 0.47,0.44 0.95,1.14 1.38,2.11 0.47,1.07 0.86,2.39 1.1,3.88zm-8.57 0l-4.78 0c1.23,-3.04 3.83,-5.36 7.05,-6.21 -1.05,1.4 -1.86,3.59 -2.27,6.21zm-5.22 1.32l5.05 0c-0.08,0.84 -0.13,1.72 -0.13,2.62 0,0.9 0.05,1.78 0.13,2.63l-5.05 0c-0.21,-0.84 -0.33,-1.72 -0.33,-2.63 0,-0.9 0.12,-1.78 0.33,-2.62zm7.66 10.44c-0.48,-1.07 -0.86,-2.39 -1.11,-3.88l7.24 0c-0.24,1.49 -0.63,2.81 -1.1,3.88 -0.43,0.97 -0.91,1.67 -1.38,2.11 -0.46,0.44 -0.84,0.57 -1.14,0.57 -0.3,0 -0.68,-0.13 -1.14,-0.56 -0.46,-0.45 -0.94,-1.15 -1.37,-2.12l0 0zm-2.44 -3.88c0.41,2.62 1.22,4.82 2.27,6.22 -3.22,-0.85 -5.82,-3.18 -7.05,-6.22l4.78 0zm14.69 0c-1.23,3.04 -3.84,5.37 -7.05,6.22 1.05,-1.4 1.85,-3.6 2.27,-6.22l4.78 0z"/>
 </g>
</svg>
