<?xml version="1.0" encoding="UTF-8"?>
<!DOCTYPE svg PUBLIC "-//W3C//DTD SVG 1.1//EN" "http://www.w3.org/Graphics/SVG/1.1/DTD/svg11.dtd">
<!-- Creator: CorelDRAW -->
<svg xmlns="http://www.w3.org/2000/svg" xml:space="preserve" width="36px" height="36px" version="1.1" style="shape-rendering:geometricPrecision; text-rendering:geometricPrecision; image-rendering:optimizeQuality; fill-rule:evenodd; clip-rule:evenodd"
viewBox="0 0 36 36"
 xmlns:xlink="http://www.w3.org/1999/xlink"
 xmlns:xodm="http://www.corel.com/coreldraw/odm/2003">
 <defs>
  <style type="text/css">
   <![CDATA[
    .fil0 {fill:#292B41}
    .fil1 {fill:#DFDAD8;fill-rule:nonzero}
   ]]>
  </style>
 </defs>
 <g id="Layer_x0020_1">
  <metadata id="CorelCorpID_0Corel-Layer"/>
  <g id="_1976099925232">
   <rect class="fil0" x="-0.34" y="1.33" width="35.01" height="35.01" rx="7" ry="7"/>
   <path id="location-dot-solid.svg" class="fil1" d="M18.13 28.77c2.09,-2.61 6.86,-8.96 6.86,-12.52 0,-4.32 -3.5,-7.82 -7.82,-7.82 -4.32,0 -7.83,3.5 -7.83,7.82 0,3.56 4.77,9.91 6.86,12.52 0.5,0.63 1.43,0.63 1.93,0l0 0zm-0.96 -15.13c1.44,0 2.6,1.17 2.6,2.61 0,1.44 -1.16,2.61 -2.6,2.61 -1.44,0 -2.61,-1.17 -2.61,-2.61 0,-1.44 1.17,-2.61 2.61,-2.61l0 0z"/>
  </g>
 </g>
</svg>
