<?xml version="1.0" encoding="UTF-8"?>
<!DOCTYPE svg PUBLIC "-//W3C//DTD SVG 1.1//EN" "http://www.w3.org/Graphics/SVG/1.1/DTD/svg11.dtd">
<!-- Creator: CorelDRAW -->
<svg xmlns="http://www.w3.org/2000/svg" xml:space="preserve" width="3508px" height="2480px" version="1.1" style="shape-rendering:geometricPrecision; text-rendering:geometricPrecision; image-rendering:optimizeQuality; fill-rule:evenodd; clip-rule:evenodd"
viewBox="0 0 3508 2480.4"
 xmlns:xlink="http://www.w3.org/1999/xlink"
 xmlns:xodm="http://www.corel.com/coreldraw/odm/2003">
 <defs>
  <style type="text/css">
   <![CDATA[
    .fil0 {fill:#292B41}
    .fil1 {fill:#DFDAD8;fill-rule:nonzero}
   ]]>
  </style>
 </defs>
 <g id="Layer_x0020_1">
  <metadata id="CorelCorpID_0Corel-Layer"/>
  <rect class="fil0" x="1804.93" y="1019.16" width="35.32" height="35.32" rx="7.06" ry="7.06"/>
  <path id="location-dot-solid.svg" class="fil1" d="M1823.56 1046.85c2.11,-2.64 6.93,-9.04 6.93,-12.63 0,-4.36 -3.54,-7.9 -7.9,-7.9 -4.36,0 -7.9,3.54 -7.9,7.9 0,3.59 4.82,9.99 6.92,12.63 0.51,0.63 1.45,0.63 1.95,0l0 0zm-0.97 -15.26c1.45,0 2.63,1.17 2.63,2.63 0,1.45 -1.18,2.63 -2.63,2.63 -1.45,0 -2.63,-1.18 -2.63,-2.63 0,-1.46 1.18,-2.63 2.63,-2.63l0 0z"/>
 </g>
</svg>
