<?xml version="1.0" encoding="UTF-8"?>
<!DOCTYPE svg PUBLIC "-//W3C//DTD SVG 1.1//EN" "http://www.w3.org/Graphics/SVG/1.1/DTD/svg11.dtd">
<!-- Creator: CorelDRAW -->
<svg xmlns="http://www.w3.org/2000/svg" xml:space="preserve" width="3508px" height="2480px" version="1.1" style="shape-rendering:geometricPrecision; text-rendering:geometricPrecision; image-rendering:optimizeQuality; fill-rule:evenodd; clip-rule:evenodd"
viewBox="0 0 3508 2480.4"
 xmlns:xlink="http://www.w3.org/1999/xlink"
 xmlns:xodm="http://www.corel.com/coreldraw/odm/2003">
 <defs>
  <style type="text/css">
   <![CDATA[
    .fil0 {fill:#292B41}
    .fil1 {fill:#DFDAD8;fill-rule:nonzero}
   ]]>
  </style>
 </defs>
 <g id="Layer_x0020_1">
  <metadata id="CorelCorpID_0Corel-Layer"/>
  <rect class="fil0" x="1864.93" y="1019.16" width="35.32" height="35.32" rx="7.06" ry="7.06"/>
  <path id="mobile-solid.svg" class="fil1" d="M1878 1026.32c-1.45,0 -2.63,1.18 -2.63,2.63l0 15.75c0,1.44 1.18,2.62 2.63,2.62l9.19 0c1.45,0 2.62,-1.18 2.62,-2.62l0 -15.75c0,-1.45 -1.17,-2.63 -2.62,-2.63l-9.19 0zm3.28 17.72l2.63 0c0.36,0 0.65,0.3 0.65,0.66 0,0.36 -0.29,0.65 -0.65,0.65l-2.63 0c-0.36,0 -0.66,-0.29 -0.66,-0.65 0,-0.36 0.3,-0.66 0.66,-0.66z"/>
 </g>
</svg>
