<?xml version="1.0" encoding="UTF-8"?>
<!DOCTYPE svg PUBLIC "-//W3C//DTD SVG 1.1//EN" "http://www.w3.org/Graphics/SVG/1.1/DTD/svg11.dtd">
<!-- Creator: CorelDRAW -->
<svg xmlns="http://www.w3.org/2000/svg" xml:space="preserve" width="36px" height="36px" version="1.1" style="shape-rendering:geometricPrecision; text-rendering:geometricPrecision; image-rendering:optimizeQuality; fill-rule:evenodd; clip-rule:evenodd"
viewBox="0 0 36 36"
 xmlns:xlink="http://www.w3.org/1999/xlink"
 xmlns:xodm="http://www.corel.com/coreldraw/odm/2003">
 <defs>
  <style type="text/css">
   <![CDATA[
    .fil0 {fill:#292B41}
    .fil1 {fill:#DFDAD8;fill-rule:nonzero}
   ]]>
  </style>
 </defs>
 <g id="Layer_x0020_1">
  <metadata id="CorelCorpID_0Corel-Layer"/>
  <g id="_1976395412704">
   <rect class="fil0" x="-0.34" y="1.33" width="35.01" height="35.01" rx="7" ry="7"/>
   <path id="mobile-solid.svg" class="fil1" d="M12.61 8.43c-1.43,0 -2.6,1.16 -2.6,2.6l0 15.61c0,1.43 1.17,2.6 2.6,2.6l9.11 0c1.43,0 2.6,-1.17 2.6,-2.6l0 -15.61c0,-1.44 -1.17,-2.6 -2.6,-2.6l-9.11 0zm3.26 17.56l2.6 0c0.36,0 0.65,0.29 0.65,0.65 0,0.36 -0.29,0.65 -0.65,0.65l-2.6 0c-0.36,0 -0.66,-0.29 -0.66,-0.65 0,-0.36 0.3,-0.65 0.66,-0.65z"/>
  </g>
 </g>
</svg>
